<svg width="33" height="23" viewBox="0 0 33 23" fill="none" xmlns="http://www.w3.org/2000/svg">
<path d="M0.285645 1.04545C0.285645 0.467841 0.797359 0 1.4285 0H31.1428C31.7714 0 32.2856 0.467841 32.2856 1.04545C32.2856 1.62307 31.7714 2.09091 31.1428 2.09091H1.4285C0.797359 2.09091 0.285645 1.62307 0.285645 1.04545ZM0.285645 11.5C0.285645 10.925 0.797359 10.4545 1.4285 10.4545H31.1428C31.7714 10.4545 32.2856 10.925 32.2856 11.5C32.2856 12.075 31.7714 12.5455 31.1428 12.5455H1.4285C0.797359 12.5455 0.285645 12.075 0.285645 11.5ZM31.1428 23H1.4285C0.797359 23 0.285645 22.5295 0.285645 21.9545C0.285645 21.3795 0.797359 20.9091 1.4285 20.9091H31.1428C31.7714 20.9091 32.2856 21.3795 32.2856 21.9545C32.2856 22.5295 31.7714 23 31.1428 23Z" fill="#FFFF39"/>
</svg>
